<?xml version="1.0" encoding="UTF-8" standalone="no"?>
<svg
   xmlns:dc="http://purl.org/dc/elements/1.1/"
   xmlns:cc="http://creativecommons.org/ns#"
   xmlns:rdf="http://www.w3.org/1999/02/22-rdf-syntax-ns#"
   xmlns:svg="http://www.w3.org/2000/svg"
   xmlns="http://www.w3.org/2000/svg"
   viewBox="0 0 3600 2800"
   height="2800"
   width="3600"
   xml:space="preserve"
   id="svg2"
   version="1.1"><metadata
     id="metadata8"><rdf:RDF><cc:Work
         rdf:about=""><dc:format>image/svg+xml</dc:format><dc:type
           rdf:resource="http://purl.org/dc/dcmitype/StillImage" /></cc:Work></rdf:RDF></metadata><defs
     id="defs6"><clipPath
       id="clipPath26"
       clipPathUnits="userSpaceOnUse"><path
         id="path24"
         d="M 0,2100 H 2700 V 0 H 0 Z" /></clipPath></defs><g
     transform="matrix(1.3333333,0,0,-1.3333333,0,2800)"
     id="g10"><g
       transform="translate(1397.8682,1109.9756)"
       id="g12"><path
         id="path14"
         style="fill:#3c3d81;fill-opacity:1;fill-rule:evenodd;stroke:none"
         d="m 0,0 -40.832,-71.748 -54.704,96.121 27.352,47.375 H -13.48 42.807 L 14.663,120.494 H -96.328 l 28.144,-48.746 h -56.287 l -27.352,-47.375 55.495,-96.121 h 55.496 55.495 L 56.087,0 Z" /></g><g
       transform="translate(1301.5404,1230.4701)"
       id="g16"><path
         id="path18"
         style="fill:#3c3d81;fill-opacity:1;fill-rule:nonzero;stroke:none"
         d="m 0,0 28.144,-48.747 h 54.704 56.287 L 110.991,0 Z M -28.144,-48.747 -55.496,-96.122 0,-192.243 h 55.496 l -54.704,96.121 27.352,47.375 z m 124.472,-71.748 -40.832,-71.748 h 55.495 l 41.424,71.748 z" /></g><g
       id="g20"><g
         clip-path="url(#clipPath26)"
         id="g22"><g
           transform="translate(1126.124,912.6006)"
           id="g28"><path
             id="path30"
             style="fill:#3c3d81;fill-opacity:1;fill-rule:nonzero;stroke:none"
             d="m 0,0 c -4.7,0 -8.688,0.787 -11.962,2.362 -3.275,1.576 -5.812,3.874 -7.612,6.901 -1.801,3.024 -2.801,6.712 -3,11.062 -0.051,2.05 -0.075,4.249 -0.075,6.6 0,2.349 0.024,4.599 0.075,6.75 0.199,4.3 1.211,7.962 3.037,10.987 1.824,3.026 4.388,5.337 7.687,6.938 3.3,1.599 7.249,2.4 11.85,2.4 3.35,0 6.4,-0.426 9.15,-1.275 2.749,-0.851 5.125,-2.076 7.125,-3.675 1.999,-1.601 3.55,-3.476 4.651,-5.625 1.098,-2.151 1.699,-4.55 1.8,-7.2 0,-0.45 -0.164,-0.825 -0.488,-1.125 -0.326,-0.3 -0.713,-0.45 -1.163,-0.45 h -8.55 c -0.599,0 -1.076,0.15 -1.424,0.45 -0.351,0.3 -0.626,0.799 -0.826,1.5 -0.75,2.95 -2,4.974 -3.75,6.075 -1.751,1.099 -3.925,1.65 -6.525,1.65 -3.101,0 -5.55,-0.85 -7.35,-2.55 -1.799,-1.701 -2.775,-4.526 -2.924,-8.475 -0.151,-4.101 -0.151,-8.3 0,-12.6 0.149,-3.95 1.125,-6.776 2.924,-8.475 1.8,-1.701 4.249,-2.55 7.35,-2.55 2.6,0 4.787,0.562 6.562,1.687 1.775,1.125 3.012,3.138 3.713,6.038 0.2,0.75 0.475,1.262 0.826,1.537 0.348,0.275 0.825,0.413 1.424,0.413 h 8.55 c 0.45,0 0.837,-0.15 1.163,-0.45 0.324,-0.3 0.488,-0.675 0.488,-1.125 -0.101,-2.651 -0.702,-5.05 -1.8,-7.2 C 19.825,8.425 18.274,6.55 16.275,4.95 14.275,3.35 11.899,2.125 9.15,1.275 6.4,0.426 3.35,0 0,0" /></g><g
           transform="translate(1184.625,932.9258)"
           id="g32"><path
             id="path34"
             style="fill:#3c3d81;fill-opacity:1;fill-rule:nonzero;stroke:none"
             d="M 0,0 H 15.524 L 7.8,21.6 Z m -16.125,-19.575 c -0.45,0 -0.825,0.162 -1.125,0.487 -0.301,0.325 -0.45,0.687 -0.45,1.088 0,0.249 0.024,0.475 0.075,0.675 l 17.85,48.224 c 0.15,0.55 0.45,1.025 0.9,1.426 0.449,0.4 1.074,0.6 1.875,0.6 h 9.6 c 0.798,0 1.424,-0.2 1.875,-0.6 0.45,-0.401 0.75,-0.876 0.9,-1.426 l 17.85,-48.224 c 0.048,-0.2 0.075,-0.426 0.075,-0.675 0,-0.401 -0.151,-0.763 -0.45,-1.088 -0.3,-0.325 -0.675,-0.487 -1.125,-0.487 h -7.8 c -0.75,0 -1.301,0.175 -1.651,0.525 -0.35,0.349 -0.575,0.675 -0.674,0.975 l -3.225,8.4 H -2.775 L -6,-18.075 c -0.102,-0.3 -0.326,-0.626 -0.676,-0.975 -0.349,-0.35 -0.899,-0.525 -1.649,-0.525 z" /></g><g
           transform="translate(1241.249,913.3506)"
           id="g36"><path
             id="path38"
             style="fill:#3c3d81;fill-opacity:1;fill-rule:nonzero;stroke:none"
             d="m 0,0 c -0.551,0 -1,0.175 -1.35,0.525 -0.35,0.349 -0.525,0.799 -0.525,1.35 v 48.75 c 0,0.55 0.175,1 0.525,1.35 C -1,52.324 -0.551,52.5 0,52.5 h 8.325 c 0.55,0 1,-0.176 1.351,-0.525 0.348,-0.35 0.524,-0.8 0.524,-1.35 V 10.05 h 23.25 c 0.55,0 1,-0.176 1.351,-0.525 0.348,-0.35 0.524,-0.8 0.524,-1.35 v -6.3 c 0,-0.551 -0.176,-1.001 -0.524,-1.35 C 34.45,0.175 34,0 33.45,0 Z" /></g><g
           transform="translate(1306.8008,913.3506)"
           id="g40"><path
             id="path42"
             style="fill:#3c3d81;fill-opacity:1;fill-rule:nonzero;stroke:none"
             d="m 0,0 c -0.801,0 -1.438,0.212 -1.913,0.638 -0.476,0.424 -0.814,0.937 -1.013,1.537 l -15.75,48.075 c -0.05,0.25 -0.074,0.475 -0.074,0.675 0,0.399 0.149,0.762 0.449,1.088 0.301,0.324 0.676,0.487 1.125,0.487 h 7.875 c 0.75,0 1.338,-0.213 1.763,-0.638 0.425,-0.424 0.686,-0.813 0.788,-1.162 L 4.949,14.025 16.574,50.7 c 0.151,0.349 0.425,0.738 0.825,1.162 0.4,0.425 0.976,0.638 1.726,0.638 H 27 c 0.449,0 0.824,-0.163 1.125,-0.487 0.3,-0.326 0.449,-0.689 0.449,-1.088 0,-0.2 -0.025,-0.425 -0.074,-0.675 L 12.75,2.175 C 12.6,1.575 12.287,1.062 11.813,0.638 11.336,0.212 10.674,0 9.824,0 Z" /></g><g
           transform="translate(1366.876,932.9258)"
           id="g44"><path
             id="path46"
             style="fill:#3c3d81;fill-opacity:1;fill-rule:nonzero;stroke:none"
             d="M 0,0 H 15.524 L 7.8,21.6 Z m -16.125,-19.575 c -0.45,0 -0.825,0.162 -1.125,0.487 -0.3,0.325 -0.45,0.687 -0.45,1.088 0,0.249 0.025,0.475 0.075,0.675 L 0.226,30.899 c 0.149,0.55 0.449,1.025 0.899,1.426 0.45,0.4 1.075,0.6 1.875,0.6 h 9.601 c 0.798,0 1.423,-0.2 1.875,-0.6 0.449,-0.401 0.75,-0.876 0.899,-1.426 l 17.851,-48.224 c 0.048,-0.2 0.074,-0.426 0.074,-0.675 0,-0.401 -0.151,-0.763 -0.449,-1.088 -0.301,-0.325 -0.676,-0.487 -1.125,-0.487 h -7.801 c -0.75,0 -1.301,0.175 -1.651,0.525 -0.349,0.349 -0.574,0.675 -0.673,0.975 l -3.226,8.4 H -2.774 L -6,-18.075 c -0.101,-0.3 -0.325,-0.626 -0.675,-0.975 -0.35,-0.35 -0.9,-0.525 -1.65,-0.525 z" /></g><g
           transform="translate(1433.5508,923.0254)"
           id="g48"><path
             id="path50"
             style="fill:#3c3d81;fill-opacity:1;fill-rule:nonzero;stroke:none"
             d="m 0,0 h 8.775 c 2.499,0 4.549,0.375 6.15,1.125 1.599,0.75 2.786,1.938 3.562,3.562 0.775,1.625 1.187,3.738 1.238,6.338 0.048,1.45 0.087,2.749 0.113,3.9 0.023,1.15 0.023,2.3 0,3.45 -0.026,1.149 -0.065,2.425 -0.113,3.825 -0.101,3.75 -1.063,6.512 -2.887,8.287 C 15.012,32.262 12.199,33.15 8.4,33.15 H 0 Z m -10.051,-9.675 c -0.551,0 -1,0.175 -1.349,0.526 -0.35,0.348 -0.526,0.798 -0.526,1.349 v 48.75 c 0,0.55 0.176,1 0.526,1.35 0.349,0.349 0.798,0.525 1.349,0.525 H 8.775 c 4.998,0 9.174,-0.787 12.525,-2.362 3.348,-1.575 5.912,-3.876 7.687,-6.9 1.775,-3.026 2.712,-6.763 2.813,-11.212 0.05,-2.202 0.075,-4.125 0.075,-5.776 0,-1.65 -0.025,-3.551 -0.075,-5.7 C 31.65,6.226 30.725,2.374 29.025,-0.675 27.324,-3.726 24.824,-5.988 21.525,-7.462 18.225,-8.938 14.1,-9.675 9.15,-9.675 Z" /></g><g
           transform="translate(1510.6504,922.2754)"
           id="g52"><path
             id="path54"
             style="fill:#3c3d81;fill-opacity:1;fill-rule:nonzero;stroke:none"
             d="m 0,0 c 2.899,0 5.287,0.888 7.162,2.663 1.875,1.774 2.862,4.612 2.963,8.512 0.1,2.2 0.15,4.263 0.15,6.187 0,1.925 -0.05,3.963 -0.15,6.114 C 10.074,26.074 9.6,28.2 8.7,29.851 7.801,31.5 6.611,32.712 5.138,33.487 3.662,34.263 1.95,34.65 0,34.65 c -1.949,0 -3.675,-0.387 -5.175,-1.163 -1.5,-0.775 -2.688,-1.987 -3.562,-3.636 -0.876,-1.651 -1.363,-3.777 -1.462,-6.375 -0.051,-2.151 -0.076,-4.189 -0.076,-6.114 0,-1.924 0.025,-3.987 0.076,-6.187 0.149,-3.9 1.148,-6.738 3,-8.512 C -5.351,0.888 -2.951,0 0,0 m 0,-9.675 c -4.551,0 -8.475,0.75 -11.775,2.25 -3.299,1.5 -5.875,3.762 -7.725,6.787 -1.85,3.026 -2.85,6.837 -3,11.438 -0.051,2.149 -0.074,4.287 -0.074,6.413 0,2.124 0.023,4.286 0.074,6.487 0.15,4.5 1.162,8.287 3.037,11.363 1.875,3.075 4.475,5.387 7.801,6.937 3.324,1.55 7.211,2.325 11.662,2.325 4.399,0 8.262,-0.775 11.588,-2.325 3.324,-1.55 5.936,-3.862 7.838,-6.937 1.898,-3.076 2.898,-6.863 3,-11.363 0.099,-2.201 0.149,-4.363 0.149,-6.487 0,-2.126 -0.05,-4.264 -0.149,-6.413 -0.151,-4.601 -1.152,-8.412 -3,-11.438 C 17.574,-3.663 15,-5.925 11.7,-7.425 8.4,-8.925 4.5,-9.675 0,-9.675" /></g><g
           transform="translate(1556.25,913.3506)"
           id="g56"><path
             id="path58"
             style="fill:#3c3d81;fill-opacity:1;fill-rule:nonzero;stroke:none"
             d="m 0,0 c -0.551,0 -1.001,0.187 -1.35,0.562 -0.351,0.375 -0.525,0.813 -0.525,1.313 v 6.3 c 0,0.7 0.15,1.275 0.449,1.725 0.301,0.45 0.526,0.775 0.676,0.975 l 25.199,31.65 H 0.675 c -0.501,0 -0.926,0.174 -1.275,0.525 -0.351,0.349 -0.525,0.774 -0.525,1.275 v 6.3 c 0,0.55 0.174,1 0.525,1.35 0.349,0.349 0.774,0.525 1.275,0.525 H 37.5 c 0.549,0 1.012,-0.176 1.387,-0.525 0.375,-0.35 0.562,-0.8 0.562,-1.35 V 44.4 c 0,-0.55 -0.099,-1.039 -0.299,-1.462 C 38.949,42.512 38.725,42.15 38.475,41.85 L 13.949,10.05 H 38.4 c 0.549,0 0.999,-0.176 1.35,-0.525 0.35,-0.35 0.525,-0.8 0.525,-1.35 v -6.3 C 40.275,1.324 40.1,0.874 39.75,0.525 39.399,0.175 38.949,0 38.4,0 Z" /></g><g
           transform="translate(1140.6396,869.8506)"
           id="g60"><path
             id="path62"
             style="fill:#3c3d81;fill-opacity:1;fill-rule:nonzero;stroke:none"
             d="M 0,0 C -0.214,0 -0.384,0.064 -0.512,0.192 -0.641,0.32 -0.704,0.49 -0.704,0.704 v 20.96 c 0,0.234 0.063,0.416 0.192,0.544 C -0.384,22.336 -0.214,22.4 0,22.4 h 12.352 c 0.234,0 0.416,-0.064 0.544,-0.192 0.127,-0.128 0.192,-0.31 0.192,-0.544 v -0.48 c 0,-0.213 -0.065,-0.384 -0.192,-0.512 -0.128,-0.128 -0.31,-0.192 -0.544,-0.192 H 1.312 v -8.608 h 10.4 c 0.234,0 0.416,-0.064 0.544,-0.192 0.128,-0.128 0.192,-0.31 0.192,-0.544 v -0.48 c 0,-0.214 -0.064,-0.384 -0.192,-0.512 -0.128,-0.128 -0.31,-0.192 -0.544,-0.192 H 1.312 V 0.704 C 1.312,0.49 1.248,0.32 1.12,0.192 0.992,0.064 0.811,0 0.576,0 Z" /></g><g
           transform="translate(1165.2793,869.8506)"
           id="g64"><path
             id="path66"
             style="fill:#3c3d81;fill-opacity:1;fill-rule:nonzero;stroke:none"
             d="M 0,0 C -0.214,0 -0.384,0.064 -0.512,0.192 -0.641,0.32 -0.704,0.49 -0.704,0.704 v 20.96 c 0,0.234 0.063,0.416 0.192,0.544 C -0.384,22.336 -0.214,22.4 0,22.4 h 12.479 c 0.235,0 0.417,-0.064 0.544,-0.192 0.128,-0.128 0.193,-0.31 0.193,-0.544 v -0.48 c 0,-0.213 -0.065,-0.384 -0.193,-0.512 C 12.896,20.544 12.714,20.48 12.479,20.48 H 1.312 v -8.16 h 10.463 c 0.236,0 0.416,-0.064 0.545,-0.192 0.128,-0.128 0.192,-0.31 0.192,-0.544 v -0.48 c 0,-0.213 -0.064,-0.384 -0.192,-0.512 C 12.191,10.464 12.011,10.4 11.775,10.4 H 1.312 V 1.92 h 11.424 c 0.235,0 0.415,-0.064 0.544,-0.192 C 13.408,1.6 13.472,1.419 13.472,1.184 V 0.704 C 13.472,0.49 13.408,0.32 13.28,0.192 13.151,0.064 12.971,0 12.736,0 Z" /></g><g
           transform="translate(1190.623,869.8506)"
           id="g68"><path
             id="path70"
             style="fill:#3c3d81;fill-opacity:1;fill-rule:nonzero;stroke:none"
             d="M 0,0 C -0.214,0 -0.384,0.064 -0.512,0.192 -0.641,0.32 -0.704,0.49 -0.704,0.704 v 20.96 c 0,0.234 0.063,0.416 0.192,0.544 C -0.384,22.336 -0.214,22.4 0,22.4 h 12.479 c 0.235,0 0.417,-0.064 0.544,-0.192 0.128,-0.128 0.193,-0.31 0.193,-0.544 v -0.48 c 0,-0.213 -0.065,-0.384 -0.193,-0.512 C 12.896,20.544 12.714,20.48 12.479,20.48 H 1.312 v -8.16 h 10.463 c 0.236,0 0.416,-0.064 0.545,-0.192 0.128,-0.128 0.192,-0.31 0.192,-0.544 v -0.48 c 0,-0.213 -0.064,-0.384 -0.192,-0.512 C 12.191,10.464 12.011,10.4 11.775,10.4 H 1.312 V 1.92 h 11.424 c 0.235,0 0.415,-0.064 0.544,-0.192 C 13.408,1.6 13.472,1.419 13.472,1.184 V 0.704 C 13.472,0.49 13.408,0.32 13.28,0.192 13.151,0.064 12.971,0 12.736,0 Z" /></g><g
           transform="translate(1215.9668,869.8506)"
           id="g72"><path
             id="path74"
             style="fill:#3c3d81;fill-opacity:1;fill-rule:nonzero;stroke:none"
             d="M 0,0 C -0.213,0 -0.384,0.064 -0.512,0.192 -0.64,0.32 -0.704,0.49 -0.704,0.704 v 20.992 c 0,0.213 0.064,0.384 0.192,0.512 C -0.384,22.336 -0.213,22.4 0,22.4 h 0.608 c 0.213,0 0.384,-0.064 0.512,-0.192 0.128,-0.128 0.192,-0.299 0.192,-0.512 V 1.92 h 11.041 c 0.234,0 0.416,-0.064 0.543,-0.192 C 13.024,1.6 13.088,1.419 13.088,1.184 V 0.704 C 13.088,0.49 13.024,0.32 12.896,0.192 12.769,0.064 12.587,0 12.353,0 Z" /></g><g
           transform="translate(1257.7588,869.8506)"
           id="g76"><path
             id="path78"
             style="fill:#3c3d81;fill-opacity:1;fill-rule:nonzero;stroke:none"
             d="M 0,0 C -0.213,0 -0.384,0.064 -0.512,0.192 -0.64,0.32 -0.704,0.49 -0.704,0.704 V 20.48 H -7.04 c -0.213,0 -0.384,0.064 -0.512,0.192 -0.128,0.128 -0.192,0.299 -0.192,0.512 v 0.48 c 0,0.234 0.064,0.416 0.192,0.544 0.128,0.128 0.299,0.192 0.512,0.192 H 7.616 c 0.235,0 0.416,-0.064 0.544,-0.192 0.128,-0.128 0.193,-0.31 0.193,-0.544 v -0.48 C 8.353,20.971 8.288,20.8 8.16,20.672 8.032,20.544 7.851,20.48 7.616,20.48 H 1.312 V 0.704 C 1.312,0.49 1.248,0.32 1.12,0.192 0.992,0.064 0.811,0 0.576,0 Z" /></g><g
           transform="translate(1277.0869,869.8506)"
           id="g80"><path
             id="path82"
             style="fill:#3c3d81;fill-opacity:1;fill-rule:nonzero;stroke:none"
             d="M 0,0 C -0.214,0 -0.384,0.064 -0.512,0.192 -0.641,0.32 -0.704,0.49 -0.704,0.704 v 20.96 c 0,0.234 0.063,0.416 0.192,0.544 C -0.384,22.336 -0.214,22.4 0,22.4 h 0.576 c 0.235,0 0.416,-0.064 0.544,-0.192 0.128,-0.128 0.192,-0.31 0.192,-0.544 V 12.32 h 12.352 v 9.344 c 0,0.234 0.064,0.416 0.191,0.544 0.128,0.128 0.299,0.192 0.513,0.192 h 0.575 c 0.236,0 0.416,-0.064 0.545,-0.192 0.128,-0.128 0.192,-0.31 0.192,-0.544 V 0.704 C 15.68,0.49 15.616,0.32 15.488,0.192 15.359,0.064 15.179,0 14.943,0 H 14.368 C 14.154,0 13.983,0.064 13.855,0.192 13.728,0.32 13.664,0.49 13.664,0.704 V 10.4 H 1.312 V 0.704 C 1.312,0.49 1.248,0.32 1.12,0.192 0.992,0.064 0.811,0 0.576,0 Z" /></g><g
           transform="translate(1305.8867,869.8506)"
           id="g84"><path
             id="path86"
             style="fill:#3c3d81;fill-opacity:1;fill-rule:nonzero;stroke:none"
             d="M 0,0 C -0.214,0 -0.384,0.064 -0.512,0.192 -0.641,0.32 -0.704,0.49 -0.704,0.704 v 20.96 c 0,0.234 0.063,0.416 0.192,0.544 C -0.384,22.336 -0.214,22.4 0,22.4 h 12.479 c 0.235,0 0.417,-0.064 0.544,-0.192 0.128,-0.128 0.193,-0.31 0.193,-0.544 v -0.48 c 0,-0.213 -0.065,-0.384 -0.193,-0.512 C 12.896,20.544 12.714,20.48 12.479,20.48 H 1.312 v -8.16 h 10.463 c 0.236,0 0.416,-0.064 0.545,-0.192 0.128,-0.128 0.192,-0.31 0.192,-0.544 v -0.48 c 0,-0.213 -0.064,-0.384 -0.192,-0.512 C 12.191,10.464 12.011,10.4 11.775,10.4 H 1.312 V 1.92 h 11.424 c 0.235,0 0.415,-0.064 0.544,-0.192 C 13.408,1.6 13.472,1.419 13.472,1.184 V 0.704 C 13.472,0.49 13.408,0.32 13.28,0.192 13.151,0.064 12.971,0 12.736,0 Z" /></g><g
           transform="translate(1345.8867,869.8506)"
           id="g88"><path
             id="path90"
             style="fill:#3c3d81;fill-opacity:1;fill-rule:nonzero;stroke:none"
             d="M 0,0 C -0.214,0 -0.384,0.064 -0.512,0.192 -0.641,0.32 -0.704,0.49 -0.704,0.704 v 20.96 c 0,0.234 0.063,0.416 0.192,0.544 C -0.384,22.336 -0.214,22.4 0,22.4 h 12.479 c 0.235,0 0.417,-0.064 0.544,-0.192 0.128,-0.128 0.193,-0.31 0.193,-0.544 v -0.48 c 0,-0.213 -0.065,-0.384 -0.193,-0.512 C 12.896,20.544 12.714,20.48 12.479,20.48 H 1.312 v -8.16 h 10.463 c 0.236,0 0.416,-0.064 0.544,-0.192 0.129,-0.128 0.193,-0.31 0.193,-0.544 v -0.48 c 0,-0.213 -0.064,-0.384 -0.193,-0.512 C 12.191,10.464 12.011,10.4 11.775,10.4 H 1.312 V 1.92 H 12.735 C 12.97,1.92 13.151,1.856 13.28,1.728 13.407,1.6 13.472,1.419 13.472,1.184 V 0.704 C 13.472,0.49 13.407,0.32 13.28,0.192 13.151,0.064 12.97,0 12.735,0 Z" /></g><g
           transform="translate(1377.8857,869.5303)"
           id="g92"><path
             id="path94"
             style="fill:#3c3d81;fill-opacity:1;fill-rule:nonzero;stroke:none"
             d="m 0,0 c -1.941,0 -3.525,0.379 -4.752,1.137 -1.227,0.757 -2.139,1.786 -2.735,3.088 -0.598,1.3 -0.929,2.784 -0.992,4.447 -0.022,0.875 -0.033,1.813 -0.033,2.816 0,1.003 0.011,1.963 0.033,2.88 0.063,1.664 0.394,3.153 0.992,4.464 0.596,1.313 1.508,2.341 2.735,3.088 1.227,0.747 2.811,1.12 4.752,1.12 1.516,0 2.806,-0.213 3.873,-0.64 C 4.939,21.974 5.809,21.413 6.48,20.721 7.152,20.026 7.654,19.28 7.984,18.48 8.315,17.681 8.502,16.896 8.545,16.128 8.566,15.937 8.508,15.781 8.369,15.664 8.229,15.547 8.064,15.488 7.873,15.488 H 7.232 c -0.17,0 -0.32,0.048 -0.447,0.144 C 6.656,15.729 6.571,15.904 6.529,16.16 6.123,18.059 5.361,19.36 4.24,20.064 3.121,20.769 1.707,21.12 0,21.12 c -1.941,0 -3.482,-0.549 -4.623,-1.647 -1.142,-1.1 -1.756,-2.854 -1.84,-5.265 -0.064,-1.749 -0.064,-3.541 0,-5.376 0.084,-2.411 0.698,-4.165 1.84,-5.264 C -3.482,2.47 -1.941,1.92 0,1.92 c 1.707,0 3.121,0.352 4.24,1.057 1.121,0.704 1.883,2.004 2.289,3.903 0.042,0.257 0.127,0.432 0.256,0.528 0.127,0.096 0.277,0.145 0.447,0.145 h 0.641 c 0.191,0 0.356,-0.06 0.496,-0.177 C 8.508,7.259 8.566,7.104 8.545,6.912 8.502,6.145 8.315,5.36 7.984,4.561 7.654,3.761 7.152,3.014 6.48,2.32 5.809,1.627 4.939,1.066 3.873,0.641 2.806,0.214 1.516,0 0,0" /></g><g
           transform="translate(1405.1182,869.5303)"
           id="g96"><path
             id="path98"
             style="fill:#3c3d81;fill-opacity:1;fill-rule:nonzero;stroke:none"
             d="m 0,0 c -1.941,0 -3.525,0.379 -4.752,1.137 -1.227,0.757 -2.139,1.786 -2.736,3.088 -0.598,1.3 -0.928,2.784 -0.992,4.447 -0.022,0.875 -0.032,1.813 -0.032,2.816 0,1.003 0.01,1.963 0.032,2.88 0.064,1.664 0.394,3.153 0.992,4.464 0.597,1.313 1.509,2.341 2.736,3.088 1.227,0.747 2.811,1.12 4.752,1.12 1.514,0 2.805,-0.213 3.871,-0.64 C 4.937,21.974 5.808,21.413 6.479,20.721 7.152,20.026 7.652,19.28 7.984,18.48 8.314,17.681 8.5,16.896 8.544,16.128 8.564,15.937 8.506,15.781 8.367,15.664 8.229,15.547 8.063,15.488 7.871,15.488 H 7.232 c -0.171,0 -0.32,0.048 -0.449,0.144 C 6.656,15.729 6.57,15.904 6.527,16.16 6.122,18.059 5.359,19.36 4.24,20.064 3.119,20.769 1.706,21.12 0,21.12 c -1.941,0 -3.483,-0.549 -4.625,-1.647 -1.141,-1.1 -1.754,-2.854 -1.84,-5.265 -0.063,-1.749 -0.063,-3.541 0,-5.376 0.086,-2.411 0.699,-4.165 1.84,-5.264 C -3.483,2.47 -1.941,1.92 0,1.92 1.706,1.92 3.119,2.272 4.24,2.977 5.359,3.681 6.122,4.981 6.527,6.88 6.57,7.137 6.656,7.312 6.783,7.408 6.912,7.504 7.061,7.553 7.232,7.553 h 0.639 c 0.192,0 0.358,-0.06 0.496,-0.177 C 8.506,7.259 8.564,7.104 8.544,6.912 8.5,6.145 8.314,5.36 7.984,4.561 7.652,3.761 7.152,3.014 6.479,2.32 5.808,1.627 4.937,1.066 3.871,0.641 2.805,0.214 1.514,0 0,0" /></g><g
           transform="translate(1425.4697,869.8506)"
           id="g100"><path
             id="path102"
             style="fill:#3c3d81;fill-opacity:1;fill-rule:nonzero;stroke:none"
             d="M 0,0 C -0.214,0 -0.385,0.064 -0.512,0.192 -0.641,0.32 -0.705,0.49 -0.705,0.704 v 20.96 c 0,0.234 0.064,0.416 0.193,0.544 C -0.385,22.336 -0.214,22.4 0,22.4 h 12.479 c 0.235,0 0.417,-0.064 0.544,-0.192 0.128,-0.128 0.193,-0.31 0.193,-0.544 v -0.48 c 0,-0.213 -0.065,-0.384 -0.193,-0.512 C 12.896,20.544 12.714,20.48 12.479,20.48 H 1.312 v -8.16 h 10.463 c 0.235,0 0.416,-0.064 0.545,-0.192 0.127,-0.128 0.192,-0.31 0.192,-0.544 v -0.48 c 0,-0.213 -0.065,-0.384 -0.192,-0.512 C 12.191,10.464 12.01,10.4 11.775,10.4 H 1.312 V 1.92 h 11.424 c 0.235,0 0.415,-0.064 0.543,-0.192 C 13.408,1.6 13.472,1.419 13.472,1.184 V 0.704 C 13.472,0.49 13.408,0.32 13.279,0.192 13.151,0.064 12.971,0 12.736,0 Z" /></g><g
           transform="translate(1450.8135,869.8506)"
           id="g104"><path
             id="path106"
             style="fill:#3c3d81;fill-opacity:1;fill-rule:nonzero;stroke:none"
             d="M 0,0 C -0.213,0 -0.384,0.064 -0.512,0.192 -0.641,0.32 -0.704,0.49 -0.704,0.704 v 20.96 c 0,0.234 0.063,0.416 0.192,0.544 C -0.384,22.336 -0.213,22.4 0,22.4 h 0.672 c 0.213,0 0.373,-0.053 0.48,-0.16 0.107,-0.107 0.17,-0.181 0.192,-0.224 L 13.152,3.968 v 17.696 c 0,0.234 0.065,0.416 0.192,0.544 0.129,0.128 0.299,0.192 0.511,0.192 h 0.577 c 0.234,0 0.416,-0.064 0.545,-0.192 0.127,-0.128 0.191,-0.31 0.191,-0.544 V 0.736 C 15.168,0.522 15.104,0.347 14.977,0.208 14.848,0.069 14.678,0 14.464,0 H 13.76 C 13.547,0 13.393,0.053 13.296,0.16 13.2,0.267 13.131,0.341 13.088,0.384 L 1.312,18.368 V 0.704 C 1.312,0.49 1.248,0.32 1.12,0.192 0.992,0.064 0.811,0 0.576,0 Z" /></g><g
           transform="translate(1483.9971,869.8506)"
           id="g108"><path
             id="path110"
             style="fill:#3c3d81;fill-opacity:1;fill-rule:nonzero;stroke:none"
             d="M 0,0 C -0.213,0 -0.384,0.064 -0.512,0.192 -0.641,0.32 -0.704,0.49 -0.704,0.704 V 20.48 H -7.04 c -0.214,0 -0.384,0.064 -0.512,0.192 -0.128,0.128 -0.192,0.299 -0.192,0.512 v 0.48 c 0,0.234 0.064,0.416 0.192,0.544 0.128,0.128 0.298,0.192 0.512,0.192 H 7.616 c 0.235,0 0.416,-0.064 0.544,-0.192 0.128,-0.128 0.192,-0.31 0.192,-0.544 v -0.48 C 8.352,20.971 8.288,20.8 8.16,20.672 8.032,20.544 7.851,20.48 7.616,20.48 H 1.312 V 0.704 C 1.312,0.49 1.248,0.32 1.12,0.192 0.992,0.064 0.811,0 0.576,0 Z" /></g><g
           transform="translate(1504.6367,881.2422)"
           id="g112"><path
             id="path114"
             style="fill:#3c3d81;fill-opacity:1;fill-rule:nonzero;stroke:none"
             d="m 0,0 h 5.983 c 1.857,0 3.239,0.379 4.145,1.137 0.906,0.757 1.36,1.892 1.36,3.407 0,1.515 -0.454,2.651 -1.36,3.408 C 9.222,8.709 7.84,9.089 5.983,9.089 H 0 Z m -1.312,-11.392 c -0.213,0 -0.384,0.065 -0.511,0.193 -0.129,0.128 -0.194,0.298 -0.194,0.511 v 20.96 c 0,0.235 0.065,0.416 0.194,0.544 0.127,0.128 0.298,0.193 0.511,0.193 h 7.456 c 2.24,0 4.027,-0.534 5.36,-1.601 1.333,-1.066 2,-2.687 2,-4.864 0,-1.707 -0.427,-3.071 -1.28,-4.096 -0.854,-1.023 -2.037,-1.718 -3.552,-2.08 l 5.152,-8.767 c 0.064,-0.128 0.096,-0.247 0.096,-0.353 0,-0.171 -0.064,-0.319 -0.192,-0.447 -0.127,-0.128 -0.278,-0.193 -0.448,-0.193 h -0.384 c -0.341,0 -0.598,0.091 -0.768,0.273 -0.171,0.181 -0.32,0.378 -0.447,0.592 L 6.593,-1.92 H 0 v -8.768 c 0,-0.213 -0.063,-0.383 -0.192,-0.511 -0.127,-0.128 -0.309,-0.193 -0.543,-0.193 z" /></g><g
           transform="translate(1530.2041,869.8506)"
           id="g116"><path
             id="path118"
             style="fill:#3c3d81;fill-opacity:1;fill-rule:nonzero;stroke:none"
             d="M 0,0 C -0.213,0 -0.383,0.064 -0.512,0.192 -0.64,0.32 -0.703,0.49 -0.703,0.704 v 20.992 c 0,0.213 0.063,0.384 0.191,0.512 C -0.383,22.336 -0.213,22.4 0,22.4 h 0.608 c 0.214,0 0.384,-0.064 0.513,-0.192 0.127,-0.128 0.191,-0.299 0.191,-0.512 V 0.704 C 1.312,0.49 1.248,0.32 1.121,0.192 0.992,0.064 0.822,0 0.608,0 Z" /></g><g
           transform="translate(1551.5166,869.5303)"
           id="g120"><path
             id="path122"
             style="fill:#3c3d81;fill-opacity:1;fill-rule:nonzero;stroke:none"
             d="m 0,0 c -1.941,0 -3.525,0.379 -4.752,1.137 -1.227,0.757 -2.139,1.786 -2.736,3.088 -0.598,1.3 -0.928,2.784 -0.992,4.447 -0.022,0.875 -0.032,1.813 -0.032,2.816 0,1.003 0.01,1.963 0.032,2.88 0.064,1.664 0.394,3.153 0.992,4.464 0.597,1.313 1.509,2.341 2.736,3.088 1.227,0.747 2.811,1.12 4.752,1.12 1.514,0 2.805,-0.213 3.871,-0.64 C 4.937,21.974 5.808,21.413 6.479,20.721 7.152,20.026 7.652,19.28 7.984,18.48 8.314,17.681 8.5,16.896 8.544,16.128 8.564,15.937 8.506,15.781 8.367,15.664 8.229,15.547 8.063,15.488 7.871,15.488 H 7.232 c -0.171,0 -0.32,0.048 -0.449,0.144 C 6.656,15.729 6.57,15.904 6.527,16.16 6.122,18.059 5.359,19.36 4.24,20.064 3.119,20.769 1.706,21.12 0,21.12 c -1.941,0 -3.483,-0.549 -4.625,-1.647 -1.141,-1.1 -1.754,-2.854 -1.84,-5.265 -0.063,-1.749 -0.063,-3.541 0,-5.376 0.086,-2.411 0.699,-4.165 1.84,-5.264 C -3.483,2.47 -1.941,1.92 0,1.92 1.706,1.92 3.119,2.272 4.24,2.977 5.359,3.681 6.122,4.981 6.527,6.88 6.57,7.137 6.656,7.312 6.783,7.408 6.912,7.504 7.061,7.553 7.232,7.553 h 0.639 c 0.192,0 0.358,-0.06 0.496,-0.177 C 8.506,7.259 8.564,7.104 8.544,6.912 8.5,6.145 8.314,5.36 7.984,4.561 7.652,3.761 7.152,3.014 6.479,2.32 5.808,1.627 4.937,1.066 3.871,0.641 2.805,0.214 1.514,0 0,0" /></g></g></g></g></svg>